<svg width="57" height="56" viewBox="0 0 57 56" fill="none" xmlns="http://www.w3.org/2000/svg">
<path d="M45.9843 10.0196L47.0338 8.97015L47.0543 8.99066L45.9843 10.0196ZM45.9843 10.0196L47.0338 8.97014C42.0619 3.99829 35.532 1.5 29.006 1.5C25.7076 1.5 22.4133 2.14956 19.3064 3.42264L45.9843 10.0196ZM15.2705 18.7208C16.7443 22.5668 19.413 27.1115 24.1527 31.8512C28.8995 36.598 33.4508 39.2536 37.2829 40.7238C36.6126 41.1428 35.9218 41.5119 35.2174 41.8392C33.1848 41.516 28.207 40.0909 22.06 33.9439C15.7522 27.6361 14.4492 22.5756 14.1777 20.6769C14.4953 20.0119 14.86 19.3577 15.2705 18.7208ZM15.3495 40.6582C16.4268 41.7354 17.4833 42.7011 18.516 43.5701C16.3953 43.2224 14.6852 42.7467 13.593 42.3651C13.1892 41.2255 12.7368 39.5203 12.4069 37.4687C13.282 38.51 14.2573 39.5752 15.3495 40.6582ZM29.006 10.9985C33.2884 10.9985 37.2982 12.6594 40.3213 15.6826C44.9545 20.3157 46.1369 27.0868 43.8921 32.8163C41.166 32.3464 36.3883 30.7063 30.843 25.1609C25.2828 19.6008 23.6383 14.8239 23.1666 12.1111C25.0036 11.3884 26.9668 10.9985 28.9838 10.9985H29.006Z" stroke="#29446D" stroke-width="3"/>
</svg>
