<svg width="200" height="29" viewBox="0 0 200 29" fill="none" xmlns="http://www.w3.org/2000/svg">
<path d="M15.326 26.8633V16.3833H5.85662V26.8633H0V1.79297H5.87073V11.2818H15.3401V1.79297H21.2108V26.8779H15.3401L15.326 26.8633Z" fill="#FFFBF5"/>
<path d="M68.7273 26.8633L58.9474 10.4655H58.8486L58.9898 26.8633H53.3025V1.79297H59.9917L69.7292 18.1616H69.828L69.6869 1.79297H75.3742V26.8779H68.7273V26.8633Z" fill="#FFFBF5"/>
<path d="M79.5232 26.8633V1.79297H95.8512V6.89449H85.1822V11.6462H95.2726V16.4999H85.1822V21.7035H96.4721V26.8779H79.5232V26.8633Z" fill="#FFFBF5"/>
<path d="M111.29 16.2365V26.8622H105.419V16.2365L96.2883 1.77734H103.387L108.566 11.0621L113.745 1.77734H120.604L111.276 16.2365H111.29Z" fill="#FFFBF5"/>
<path d="M140.516 19.5754C140.516 20.9455 140.248 22.097 139.726 23.0299C139.204 23.9627 138.498 24.7061 137.638 25.2745C136.763 25.843 135.775 26.2511 134.674 26.4989C133.573 26.7467 132.43 26.8633 131.259 26.8633H121.592V1.79297H131.259C132.19 1.79297 133.15 1.895 134.138 2.09906C135.126 2.30312 136.015 2.63836 136.819 3.11936C137.623 3.60036 138.273 4.25627 138.781 5.08709C139.289 5.91791 139.543 6.96737 139.543 8.23546C139.543 9.63473 139.176 10.7862 138.442 11.6899C137.708 12.5936 136.748 13.2495 135.563 13.6576V13.7305C136.255 13.8471 136.89 14.0658 137.496 14.3864C138.103 14.7071 138.625 15.1152 139.077 15.6108C139.529 16.1064 139.881 16.6894 140.135 17.3453C140.404 18.0012 140.531 18.7446 140.531 19.5754H140.516ZM133.87 9.0517C133.87 8.20631 133.559 7.57955 132.924 7.186C132.289 6.79246 131.358 6.60297 130.13 6.60297H127.251V11.7774H130.412C131.513 11.7774 132.36 11.5442 132.966 11.0923C133.573 10.6405 133.87 9.9554 133.87 9.0517ZM134.66 19.0069C134.66 17.9721 134.279 17.2433 133.531 16.8497C132.769 16.4416 131.767 16.2521 130.511 16.2521H127.251V21.995H130.539C130.991 21.995 131.47 21.9513 131.964 21.8784C132.458 21.7909 132.896 21.6452 133.305 21.4411C133.7 21.2225 134.025 20.9309 134.279 20.5374C134.533 20.1439 134.66 19.6483 134.66 19.0361V19.0069Z" fill="#FFFBF5"/>
<path d="M143.522 26.8633V1.79297H159.85V6.89449H149.181V11.6462H159.272V16.4999H149.181V21.7035H160.471V26.8779H143.522V26.8633Z" fill="#FFFBF5"/>
<path d="M163.491 26.8633V1.79297H179.819V6.89449H169.151V11.6462H179.241V16.4999H169.151V21.7035H180.44V26.8779H163.491V26.8633Z" fill="#FFFBF5"/>
<path d="M196.274 8.30724C195.766 7.65133 195.117 7.1266 194.299 6.73305C193.48 6.33951 192.704 6.15002 191.956 6.15002C191.561 6.15002 191.166 6.17917 190.77 6.25205C190.375 6.32493 190.008 6.45611 189.684 6.66017C189.359 6.86424 189.091 7.1266 188.879 7.44727C188.668 7.76793 188.555 8.17605 188.555 8.67163C188.555 9.09433 188.64 9.45872 188.809 9.73566C188.978 10.0126 189.232 10.2604 189.571 10.479C189.896 10.6977 190.291 10.8871 190.756 11.0621C191.208 11.237 191.73 11.4264 192.295 11.6159C193.113 11.8929 193.974 12.2135 194.863 12.5488C195.752 12.884 196.571 13.3504 197.305 13.9189C198.038 14.4874 198.645 15.187 199.125 16.0324C199.605 16.8778 199.845 17.9127 199.845 19.1662C199.845 20.6092 199.591 21.8481 199.069 22.8976C198.561 23.947 197.869 24.8216 196.994 25.5066C196.119 26.1917 195.131 26.7019 194.016 27.0225C192.901 27.3578 191.744 27.5181 190.559 27.5181C188.823 27.5181 187.144 27.212 185.521 26.5852C183.898 25.9585 182.543 25.0694 181.47 23.9179L185.309 19.8804C185.902 20.6383 186.692 21.2651 187.652 21.7752C188.625 22.2854 189.585 22.5332 190.545 22.5332C190.982 22.5332 191.406 22.4895 191.815 22.3874C192.224 22.3 192.591 22.1396 192.901 21.921C193.212 21.7024 193.452 21.4254 193.635 21.0756C193.819 20.7258 193.903 20.3031 193.903 19.8075C193.903 19.3119 193.791 18.933 193.565 18.5977C193.339 18.2625 193.014 17.971 192.591 17.694C192.168 17.4171 191.645 17.1693 191.01 16.9507C190.375 16.732 189.67 16.4842 188.865 16.2219C188.089 15.9595 187.327 15.6534 186.579 15.3036C185.831 14.9538 185.168 14.5019 184.589 13.9335C184.011 13.3796 183.531 12.7091 183.178 11.922C182.825 11.1349 182.642 10.1729 182.642 9.03602C182.642 7.63675 182.91 6.45611 183.46 5.46496C184.011 4.47381 184.73 3.65757 185.619 3.01623C186.509 2.3749 187.511 1.90848 188.64 1.61696C189.754 1.32545 190.898 1.17969 192.041 1.17969C193.41 1.17969 194.807 1.44205 196.246 1.96678C197.671 2.49151 198.927 3.24945 200 4.26975L196.26 8.35096L196.274 8.30724Z" fill="#FFFBF5"/>
<path d="M33.348 18.3506C37.1583 22.286 40.263 23.0294 41.392 23.146C42.3658 22.6942 43.3113 22.1111 44.1722 21.324C41.9142 20.6973 38.8941 19.2397 35.6765 15.931C32.473 12.6223 31.0618 9.51767 30.455 7.18555C29.7211 8.06009 29.1284 8.99294 28.6909 9.99867C28.7897 11.0481 29.4106 14.3131 33.3339 18.3506H33.348Z" fill="#EEAF30"/>
<path d="M27.4915 16.8066C27.5338 19.6489 28.1406 22.1268 28.6063 23.2491C29.5942 23.6718 31.951 24.3423 34.844 24.4006C33.588 23.5698 32.2332 22.462 30.8079 20.9899C29.3684 19.5032 28.31 18.1039 27.5056 16.8066H27.4915Z" fill="#EEAF30"/>
<path d="M47.2202 4.02291C44.6236 1.34097 41.2084 0 37.8073 0C36.0715 0 34.3357 0.349818 32.6986 1.04945C32.6422 1.06403 32.5857 1.09318 32.5293 1.12233C28.846 2.98803 24.584 1.82197 23.6103 4.76627C23.0317 6.54452 23.6103 8.52682 24.9933 9.57628C22.4672 16.733 24.9368 24.8662 25.9812 25.9594C26.7009 26.7028 30.5959 28.1166 35.2106 28.1166C37.3557 28.1166 39.6419 27.8106 41.8434 26.9797C42.8595 28.4082 44.7929 29.0203 46.5146 28.4227C49.3653 27.417 48.2504 23.0151 50.0427 19.2109C50.0709 19.138 50.0991 19.0797 50.1132 19.0068C52.1031 14.0219 51.1434 8.07497 47.2202 4.02291ZM41.3918 23.1463C40.277 23.0151 37.1722 22.2863 33.3478 18.3509C29.4387 14.3134 28.8036 11.063 28.7048 9.99897C29.1423 9.00782 29.7209 8.0604 30.4689 7.18585C31.0757 9.51797 32.4869 12.6226 35.6904 15.9313C38.8939 19.24 41.914 20.6976 44.1861 21.3243C43.3252 22.1114 42.3797 22.6945 41.4059 23.1463H41.3918ZM37.7932 3.71682C40.3899 3.71682 42.8313 4.76627 44.6659 6.66112C47.6436 9.73661 48.2645 14.3134 46.5711 18.0302C45.0469 17.8845 41.8999 17.0974 38.2307 13.3077C34.5473 9.5034 33.7853 6.253 33.6583 4.67882C34.9425 4.05206 36.3396 3.71682 37.8073 3.71682H37.7932ZM28.5919 23.2338C28.1403 22.1114 27.5335 19.6336 27.4771 16.7913C28.2815 18.0885 29.354 19.4878 30.7793 20.9745C32.2047 22.4467 33.5595 23.5544 34.8155 24.3852C31.9224 24.3269 29.5798 23.6565 28.5778 23.2338H28.5919Z" fill="#FFFBF5"/>
</svg>
