<svg width="39" height="40" viewBox="0 0 39 40" fill="none" xmlns="http://www.w3.org/2000/svg">
<path d="M32.3679 25.1729C34.7323 19.9837 33.8456 13.5736 29.7081 9.30011C27.1467 6.65464 23.7381 5.18945 20.1128 5.18945C18.0834 5.18945 16.1131 5.6575 14.3202 6.53254C14.5172 8.70997 15.5615 13.2683 20.7039 18.5796C25.8266 23.8706 30.2203 24.9694 32.3482 25.1729H32.3679Z" fill="#FFFBF5"/>
<path d="M13.9063 25.6192C19.2261 31.1136 23.5607 32.1515 25.1369 32.3143C26.4964 31.6834 27.8165 30.8694 29.0184 29.7705C25.8659 28.8955 21.6495 26.8605 17.1573 22.2411C12.6848 17.6217 10.7145 13.2872 9.86727 10.0312C8.84272 11.2522 8.0152 12.5546 7.40442 13.9588C7.54234 15.4239 8.40926 19.9823 13.8866 25.6192H13.9063Z" fill="#EEAF30"/>
<path d="M5.72974 23.4648C5.78884 27.4331 6.63607 30.8925 7.28626 32.4594C8.66545 33.0496 11.9558 33.9857 15.9949 34.0671C14.2413 32.9071 12.3499 31.3606 10.3599 29.3052C8.35021 27.2296 6.8725 25.276 5.74944 23.4648H5.72974Z" fill="#EEAF30"/>
<path d="M33.2738 5.61654C29.6485 1.87218 24.8805 0 20.1321 0C17.7087 0 15.2852 0.488395 12.9997 1.46518C12.9209 1.48553 12.8421 1.52623 12.7633 1.56693C7.62083 4.1717 1.67059 2.54372 0.311103 6.65438C-0.49671 9.13705 0.311103 11.9046 2.24197 13.3698C-1.28482 23.3615 2.16316 34.7167 3.62117 36.243C4.62601 37.2808 10.064 39.2547 16.5068 39.2547C19.5016 39.2547 22.6935 38.8274 25.7671 37.6674C27.1857 39.6617 29.885 40.5164 32.2887 39.6821C36.2687 38.2779 34.7121 32.1323 37.2144 26.821C37.2538 26.7193 37.2932 26.6379 37.3129 26.5361C40.091 19.5765 38.7512 11.2738 33.2738 5.61654ZM25.1366 32.3154C23.5801 32.1323 19.2455 31.1148 13.906 25.6204C8.44835 19.9835 7.56173 15.4455 7.42381 13.9599C8.03459 12.5762 8.84241 11.2534 9.88665 10.0324C10.7339 13.2884 12.7042 17.6229 17.1767 22.2423C21.6492 26.8617 25.8656 28.8967 29.0377 29.7717C27.8359 30.8706 26.5158 31.6846 25.1563 32.3154H25.1366ZM20.1124 5.18919C23.7377 5.18919 27.1463 6.65438 29.7076 9.29985C33.8649 13.5937 34.7318 19.9835 32.3675 25.1727C30.2396 24.9692 25.8459 23.8703 20.7232 18.5793C15.5808 13.2681 14.5168 8.73006 14.3395 6.53228C16.1324 5.65724 18.083 5.18919 20.1321 5.18919H20.1124ZM7.26618 32.4375C6.63569 30.8706 5.78847 27.4112 5.70966 23.4429C6.83272 25.2541 8.33013 27.2077 10.3201 29.2833C12.3101 31.3387 14.2016 32.8852 15.9551 34.0452C11.916 33.9638 8.64538 33.0277 7.24648 32.4375H7.26618Z" fill="#29446D"/>
</svg>
